<svg width="40" height="40" viewBox="0 0 40 40" fill="none" xmlns="http://www.w3.org/2000/svg">
<path d="M20 30C22.7614 30 25 27.7614 25 25C25 22.2386 22.7614 20 20 20C17.2386 20 15 22.2386 15 25C15 27.7614 17.2386 30 20 30Z" fill="black"/>
<path d="M29.9998 3.33325H9.99984C9.11578 3.33325 8.26794 3.68444 7.64281 4.30956C7.01769 4.93468 6.6665 5.78253 6.6665 6.66659V33.3333C6.6665 34.2173 7.01769 35.0652 7.64281 35.6903C8.26794 36.3154 9.11578 36.6666 9.99984 36.6666H29.9998C30.8839 36.6666 31.7317 36.3154 32.3569 35.6903C32.982 35.0652 33.3332 34.2173 33.3332 33.3333V6.66659C33.3332 5.78253 32.982 4.93468 32.3569 4.30956C31.7317 3.68444 30.8839 3.33325 29.9998 3.33325ZM19.9998 6.66659C20.6591 6.66659 21.3036 6.86208 21.8517 7.22835C22.3999 7.59462 22.8271 8.11522 23.0794 8.72431C23.3317 9.33339 23.3977 10.0036 23.2691 10.6502C23.1405 11.2968 22.823 11.8908 22.3569 12.3569C21.8907 12.8231 21.2967 13.1406 20.6501 13.2692C20.0035 13.3978 19.3333 13.3318 18.7242 13.0795C18.1151 12.8272 17.5945 12.4 17.2283 11.8518C16.862 11.3037 16.6665 10.6592 16.6665 9.99992C16.6665 9.11586 17.0177 8.26802 17.6428 7.6429C18.2679 7.01777 19.1158 6.66659 19.9998 6.66659ZM19.9998 33.3333C18.3517 33.3333 16.7405 32.8445 15.3701 31.9288C13.9997 31.0132 12.9316 29.7117 12.3008 28.1889C11.6701 26.6662 11.5051 24.9907 11.8266 23.3742C12.1482 21.7577 12.9418 20.2728 14.1073 19.1074C15.2727 17.9419 16.7576 17.1483 18.3741 16.8267C19.9906 16.5052 21.6661 16.6702 23.1889 17.3009C24.7116 17.9317 26.0131 18.9998 26.9288 20.3702C27.8444 21.7406 28.3332 23.3517 28.3332 24.9999C28.3332 27.2101 27.4552 29.3297 25.8924 30.8925C24.3296 32.4553 22.21 33.3333 19.9998 33.3333Z" fill="black"/>
</svg>
