<svg width="40" height="40" viewBox="0 0 40 40" fill="none" xmlns="http://www.w3.org/2000/svg">
<g clip-path="url(#clip0_959_91)">
<path d="M20 16C19.2121 16 18.4319 16.1552 17.7039 16.4567C16.9759 16.7583 16.3145 17.2002 15.7574 17.7574C15.2002 18.3145 14.7583 18.9759 14.4567 19.7039C14.1552 20.4319 14 21.2121 14 22C14 22.7879 14.1552 23.5681 14.4567 24.2961C14.7583 25.0241 15.2002 25.6855 15.7574 26.2426C16.3145 26.7998 16.9759 27.2417 17.7039 27.5433C18.4319 27.8448 19.2121 28 20 28C21.5913 28 23.1174 27.3679 24.2426 26.2426C25.3679 25.1174 26 23.5913 26 22C26 20.4087 25.3679 18.8826 24.2426 17.7574C23.1174 16.6321 21.5913 16 20 16ZM36 10H31.2C30.8545 9.98424 30.5212 9.86798 30.2409 9.66547C29.9606 9.46296 29.7455 9.18302 29.622 8.86L28.38 5.138C28.2556 4.81534 28.04 4.5359 27.7594 4.3338C27.4788 4.13171 27.1454 4.01572 26.8 4H13.2C12.54 4 11.828 4.512 11.622 5.136L10.378 8.86C10.2543 9.18287 10.0392 9.46267 9.75888 9.66515C9.47861 9.86763 9.14539 9.98399 8.8 10H4C1.8 10 0 11.8 0 14V32C0 34.2 1.8 36 4 36H36C38.2 36 40 34.2 40 32V14C40 11.8 38.2 10 36 10ZM20 32C17.3478 32 14.8043 30.9464 12.9289 29.0711C11.0536 27.1957 10 24.6522 10 22C10 19.3478 11.0536 16.8043 12.9289 14.9289C14.8043 13.0536 17.3478 12 20 12C22.6522 12 25.1957 13.0536 27.0711 14.9289C28.9464 16.8043 30 19.3478 30 22C30 24.6522 28.9464 27.1957 27.0711 29.0711C25.1957 30.9464 22.6522 32 20 32ZM35 16.4C34.6287 16.4 34.2726 16.2525 34.0101 15.9899C33.7475 15.7274 33.6 15.3713 33.6 15C33.6 14.6287 33.7475 14.2726 34.0101 14.0101C34.2726 13.7475 34.6287 13.6 35 13.6C35.3713 13.6 35.7274 13.7475 35.9899 14.0101C36.2525 14.2726 36.4 14.6287 36.4 15C36.4 15.3713 36.2525 15.7274 35.9899 15.9899C35.7274 16.2525 35.3713 16.4 35 16.4Z" fill="black"/>
</g>
<defs>
<clipPath id="clip0_959_91">
<rect width="40" height="40" fill="white"/>
</clipPath>
</defs>
</svg>
