<svg width="40" height="40" viewBox="0 0 40 40" fill="none" xmlns="http://www.w3.org/2000/svg">
<g clip-path="url(#clip0_959_110)">
<path d="M30.3999 5.00006C27.1669 6.58187 23.6262 7.43526 20.0274 7.50006C16.3574 7.43415 12.7472 6.55828 9.45494 4.93506C2.92744 5.00006 0.00244141 7.92506 0.00244141 14.6001V29.6001C0.0221559 31.0391 0.607676 32.4125 1.63231 33.4231C2.65694 34.4337 4.03828 35.0002 5.47744 35.0001H6.05744C7.20118 35.0004 8.3163 34.6425 9.24624 33.9766C10.1762 33.3108 10.8743 32.3704 11.2424 31.2876C12.0049 29.0001 14.1049 25.0001 16.4549 25.0001H23.5549C25.9049 25.0001 28.0049 29.0001 28.7549 31.2501C29.1186 32.3407 29.8158 33.2895 30.748 33.9624C31.6802 34.6353 32.8003 34.9983 33.9499 35.0001H34.5299C37.5549 35.0001 40.0049 32.5501 40.0049 29.5251V14.5251C40.0049 7.92506 37.0799 5.00006 30.4049 5.00006H30.3999ZM12.4999 17.5001H9.99994V20.0001H7.49994V17.5001H4.99994V15.0001H7.49994V12.5001H9.99994V15.0001H12.4999V17.5001ZM25.1499 20.2751C24.8018 20.2749 24.457 20.2062 24.1354 20.0728C23.8138 19.9394 23.5217 19.7439 23.2756 19.4976C23.0295 19.2513 22.8344 18.959 22.7013 18.6372C22.5682 18.3155 22.4998 17.9707 22.4999 17.6226C22.5001 17.2744 22.5688 16.9297 22.7022 16.6081C22.8356 16.2865 23.031 15.9943 23.2774 15.7482C23.5237 15.5021 23.816 15.307 24.1378 15.1739C24.4595 15.0408 24.8043 14.9724 25.1524 14.9726C25.8556 14.9729 26.5298 15.2525 27.0268 15.75C27.5238 16.2474 27.8028 16.9219 27.8024 17.6251C27.8021 18.3282 27.5225 19.0024 27.025 19.4994C26.5276 19.9964 25.8531 20.2754 25.1499 20.2751ZM32.4999 20.0001C31.8369 20.0001 31.201 19.7367 30.7322 19.2678C30.2633 18.799 29.9999 18.1631 29.9999 17.5001C29.9999 16.837 30.2633 16.2011 30.7322 15.7323C31.201 15.2635 31.8369 15.0001 32.4999 15.0001C33.163 15.0001 33.7989 15.2635 34.2677 15.7323C34.7365 16.2011 34.9999 16.837 34.9999 17.5001C34.9999 18.1631 34.7365 18.799 34.2677 19.2678C33.7989 19.7367 33.163 20.0001 32.4999 20.0001Z" fill="black"/>
</g>
<defs>
<clipPath id="clip0_959_110">
<rect width="40" height="40" fill="white"/>
</clipPath>
</defs>
</svg>
