<svg width="40" height="40" viewBox="0 0 40 40" fill="none" xmlns="http://www.w3.org/2000/svg">
<path d="M7.67009 28.496C6.90342 28.496 6.26342 28.2388 5.75009 27.7243C5.23565 27.211 4.97842 26.5705 4.97842 25.8027V9.51935C4.97842 8.75268 5.23565 8.11268 5.75009 7.59935C6.26454 7.08601 6.90453 6.82935 7.67009 6.82935H32.2868C33.0534 6.82935 33.6934 7.08601 34.2068 7.59935C34.7212 8.11379 34.9784 8.75435 34.9784 9.52101V25.8043C34.9784 26.571 34.7218 27.211 34.2084 27.7243C33.6951 28.2377 33.0545 28.4949 32.2868 28.496H7.67009ZM2.92676 31.8293V30.1627H37.0301V31.8293H2.92676Z" fill="black"/>
</svg>
